<svg width="25" height="22" viewBox="0 0 25 22" fill="none" xmlns="http://www.w3.org/2000/svg">
<path d="M9.22974 19.2849C9.5404 19.2849 9.79224 19.0573 9.79224 18.7766C9.79224 18.4959 9.5404 18.2683 9.22974 18.2683C8.91908 18.2683 8.66724 18.4959 8.66724 18.7766C8.66724 19.0573 8.91908 19.2849 9.22974 19.2849Z" fill="#22262A" stroke="#22262A" stroke-width="2" stroke-miterlimit="10" stroke-linecap="round" stroke-linejoin="round"/>
<path d="M17.1047 19.2849C17.4154 19.2849 17.6672 19.0573 17.6672 18.7766C17.6672 18.4959 17.4154 18.2683 17.1047 18.2683C16.7941 18.2683 16.5422 18.4959 16.5422 18.7766C16.5422 19.0573 16.7941 19.2849 17.1047 19.2849Z" fill="#22262A" stroke="#22262A" stroke-width="2" stroke-miterlimit="10" stroke-linecap="round" stroke-linejoin="round"/>
<path d="M3.04224 3.00122H5.29224L7.54224 15.215H18.7922L21.0422 6.05466H6.41724" stroke="#22262A" stroke-width="2" stroke-linecap="round" stroke-linejoin="round"/>
</svg>
