<svg width="21" height="19" viewBox="0 0 21 19" fill="none" xmlns="http://www.w3.org/2000/svg">
<path fill-rule="evenodd" clip-rule="evenodd" d="M20.8104 15.5432C20.327 14.3776 19.5858 13.3137 18.6322 12.4167C17.6786 11.5196 16.5327 10.8083 15.2648 10.3264C15.9543 9.81365 16.5111 9.17014 16.8959 8.44127C17.2807 7.71241 17.4841 6.91593 17.4918 6.1081C17.4669 4.69234 16.8634 3.33519 15.7979 2.29879C14.7323 1.26239 13.2804 0.620286 11.7226 0.49655C11.2124 0.439301 10.6965 0.439301 10.1863 0.49655C8.62937 0.621343 7.17864 1.26391 6.11415 2.3002C5.04967 3.33649 4.44685 4.69305 4.42206 6.1081C4.42948 6.91597 4.63279 7.71251 5.0176 8.44141C5.40242 9.17032 5.95939 9.81381 6.64909 10.3264C5.3809 10.8081 4.23474 11.5193 3.28092 12.4164C2.32709 13.3135 1.5857 14.3775 1.10219 15.5432C0.965799 15.8841 0.925311 16.2503 0.984406 16.6088C1.0435 16.9674 1.20032 17.307 1.44067 17.5969C1.69008 17.8948 2.01278 18.1358 2.38311 18.3009C2.75344 18.466 3.16122 18.5506 3.574 18.548H18.3486C18.761 18.5505 19.1684 18.4659 19.5383 18.3007C19.9082 18.1356 20.2305 17.8946 20.4795 17.5969C20.7192 17.3067 20.875 16.9668 20.9328 16.6081C20.9906 16.2495 20.9485 15.8834 20.8104 15.5432ZM7.03628 6.1081C7.05355 5.2506 7.42368 4.42981 8.07425 3.80646C8.72481 3.18311 9.60893 2.80209 10.5535 2.73799C10.8227 2.70783 11.0949 2.70783 11.3641 2.73799C12.0745 2.83661 12.7388 3.1176 13.2782 3.54762C13.8176 3.97764 14.2095 4.53867 14.4075 5.16422C14.6054 5.78976 14.6012 6.45358 14.3952 7.077C14.1891 7.70041 13.79 8.25728 13.2452 8.68158C12.7003 9.10589 12.0325 9.37983 11.3209 9.47095C10.6093 9.56208 9.88369 9.46653 9.23022 9.19568C8.57675 8.92483 8.02277 8.49002 7.63392 7.94278C7.24506 7.39553 7.03766 6.75882 7.03628 6.1081ZM3.57148 16.2862C4.16342 14.9507 5.18335 13.8062 6.49994 13.0001C7.81652 12.194 9.36949 11.7633 10.9588 11.7633C12.5482 11.7633 14.1011 12.194 15.4177 13.0001C16.7343 13.8062 17.7542 14.9507 18.3461 16.2862H3.574H3.57148Z" fill="#22262A"/>
</svg>
