<svg width="22" height="19" viewBox="0 0 22 19" fill="none" xmlns="http://www.w3.org/2000/svg">
<path fill-rule="evenodd" clip-rule="evenodd" d="M20.707 16.9359L14.3991 11.2026C15.5308 9.74948 16.0179 7.96479 15.7639 6.2021C15.5099 4.4394 14.5333 2.82733 13.0277 1.68527C11.522 0.543205 9.59713 -0.0455248 7.63437 0.0357389C5.67162 0.117003 3.81422 0.862285 2.43015 2.12399C1.04608 3.3857 0.236326 5.07174 0.161352 6.84806C0.0863781 8.62438 0.751649 10.3614 2.02534 11.7149C3.29902 13.0685 5.0882 13.9398 7.0384 14.1562C8.98859 14.3726 10.9575 13.9185 12.555 12.8836L18.863 18.6178C18.9844 18.7299 19.1292 18.8191 19.289 18.8802C19.4488 18.9413 19.6205 18.973 19.794 18.9735C19.9674 18.9741 20.1393 18.9434 20.2996 18.8833C20.4598 18.8232 20.6053 18.7349 20.7275 18.6235C20.8497 18.5121 20.9462 18.3798 21.0114 18.2344C21.0767 18.0889 21.1093 17.9332 21.1074 17.7763C21.1055 17.6193 21.0691 17.4643 21.0003 17.3201C20.9316 17.176 20.8319 17.0457 20.707 16.9367V16.9359ZM8.01804 11.8314C6.97709 11.8366 5.95786 11.5621 5.08954 11.0426C4.22123 10.5232 3.54291 9.78222 3.14057 8.91362C2.73823 8.04502 2.62998 7.08787 2.82953 6.16355C3.02909 5.23923 3.52747 4.38934 4.26151 3.72156C4.99555 3.05378 5.93219 2.59817 6.95273 2.41252C7.97328 2.22686 9.03177 2.31954 9.99405 2.67873C10.9563 3.03793 11.7791 3.6475 12.358 4.4302C12.9369 5.2129 13.246 6.13345 13.246 7.07523C13.2461 8.33211 12.6962 9.53793 11.7166 10.4291C10.7369 11.3203 9.40725 11.8244 8.01804 11.8314Z" fill="#22262A"/>
</svg>
